<?xml version="1.0" encoding="UTF-8" standalone="no"?>
<svg
   xmlns:dc="http://purl.org/dc/elements/1.1/"
   xmlns:cc="http://creativecommons.org/ns#"
   xmlns:rdf="http://www.w3.org/1999/02/22-rdf-syntax-ns#"
   xmlns:svg="http://www.w3.org/2000/svg"
   xmlns="http://www.w3.org/2000/svg"
   xmlns:sodipodi="http://sodipodi.sourceforge.net/DTD/sodipodi-0.dtd"
   xmlns:inkscape="http://www.inkscape.org/namespaces/inkscape"
   width="4.2333312mm"
   height="4.2333407mm"
   viewBox="0 0 4.2333312 4.2333407"
   version="1.1"
   id="svg8"
   inkscape:version="1.0.1 (0767f8302a, 2020-10-17)"
   sodipodi:docname="character.svg">
  <defs
     id="defs2" />
  <sodipodi:namedview
     id="base"
     pagecolor="#ffffff"
     bordercolor="#666666"
     borderopacity="1.0"
     inkscape:pageopacity="0.0"
     inkscape:pageshadow="2"
     inkscape:zoom="45.254834"
     inkscape:cx="6.8636115"
     inkscape:cy="7.5928573"
     inkscape:document-units="px"
     inkscape:current-layer="layer2"
     inkscape:document-rotation="0"
     showgrid="true"
     fit-margin-top="0"
     fit-margin-left="0"
     fit-margin-right="0"
     fit-margin-bottom="0"
     inkscape:window-width="1900"
     inkscape:window-height="1036"
     inkscape:window-x="1090"
     inkscape:window-y="1142"
     inkscape:window-maximized="1">
    <inkscape:grid
       type="xygrid"
       id="grid916"
       spacingx="0.26458333"
       empspacing="1"
       originx="5.1999998e-07"
       originy="7.1666664e-06" />
  </sodipodi:namedview>
  <metadata
     id="metadata5">
    <rdf:RDF>
      <cc:Work
         rdf:about="">
        <dc:format>image/svg+xml</dc:format>
        <dc:type
           rdf:resource="http://purl.org/dc/dcmitype/StillImage" />
        <dc:title></dc:title>
      </cc:Work>
    </rdf:RDF>
  </metadata>
  <g
     inkscape:groupmode="layer"
     id="layer2"
     inkscape:label="Layer 2"
     style="display:inline">
    <path
       id="path918"
       style="opacity:1;fill:#000000;fill-opacity:1;stroke:none;stroke-width:0;stroke-linecap:butt;stroke-linejoin:miter;stroke-miterlimit:4;stroke-dasharray:none;stroke-opacity:1"
       d="M 1.32292,-6.6666667e-6 V 0.26458333 H 0.79374998 v 0.26458 h -0.26458 V 1.0583333 h -0.26459 v 0.52916 H -2e-8 v 1.32292 h 0.26458 v 0.52917 h 0.26459 v -0.52917 h 0.26458 v -0.26458 H 1.05833 v -0.26459 H 0.79374998 v -0.26458 h -0.26458 v -0.26458 H 1.05833 v -0.26459 h 0.26459 v -0.26458 H 1.5875 v -0.26458 H 2.64583 V 0.79374333 H 2.91042 V 1.5874933 H 3.175 v 0.26459 h 0.52917 v 0.26458 H 3.43958 v 0.26458 H 3.175 v 0.26459 h 0.26458 v 0.26458 h 0.26459 v 0.52917 h 0.26458 v -0.52917 h 0.26458 v -1.32292 H 3.96875 v -0.52916 H 3.70417 V 0.79374333 H 3.43958 v -0.52916 H 2.91042 V -6.6666667e-6 Z M 3.70417,3.4395833 H 3.43958 v -0.26459 H 3.175 v 0.26459 H 2.91042 v 0.52916 h -1.5875 v -0.52916 H 1.05833 v -0.26459 H 0.79374998 v 0.26459 h -0.26458 v 0.26458 h 0.26458 v 0.26458 H 1.05833 v 0.26459 H 3.175 v -0.26459 h 0.26458 v -0.26458 H 3.70417 Z M 1.05833,3.1749933 H 3.175 v -0.52916 H 1.05833 Z m 0.26459,-1.32291 v 0.52916 H 1.5875 v -0.52916 z m 1.32291,0 v 0.52916 h 0.26459 v -0.52916 z" />
  </g>
</svg>
